<svg xmlns="http://www.w3.org/2000/svg" xmlns:xlink="http://www.w3.org/1999/xlink" viewBox="0 0 60 58"><defs><style>.cls-1{fill:none;}.cls-2{clip-path:url(#clip-path);}.cls-3{fill:#a4a4a5;}.cls-4{fill:#fff;}.cls-5{fill:#15a8ca;}.cls-6{fill:#efefef;}</style><clipPath id="clip-path"><circle class="cls-1" cx="29" cy="29" r="29"/></clipPath></defs><title>23-9_Update</title><g id="Assets-Schedule-Inactive"><g id="Group_104" data-name="Group 104"><g class="cls-2"><g id="Mask_Group_2" data-name="Mask Group 2"><g id="Assets_Grey_Prof_Placeholder" data-name="Assets Grey Prof Placeholder"><circle id="Ellipse_40" data-name="Ellipse 40" class="cls-3" cx="29" cy="29" r="29"/><path id="Path_128" data-name="Path 128" class="cls-4" d="M28.66,26.3A9.67,9.67,0,1,0,19,16.64v.06A9.66,9.66,0,0,0,28.66,26.3Zm6.78,2.39H34.17a13.4,13.4,0,0,1-5.5,1.25,13.16,13.16,0,0,1-5.5-1.17H21.9A10.12,10.12,0,0,0,11.77,38.89V42.1a3.62,3.62,0,0,0,3.63,3.61h0L42,45.55a3.63,3.63,0,0,0,3.59-3.64V38.77A10.13,10.13,0,0,0,35.44,28.68Z"/></g></g></g><g id="Group_86" data-name="Group 86"><ellipse id="Ellipse_38" data-name="Ellipse 38" class="cls-5" cx="51.5" cy="44" rx="8.5" ry="9"/><path id="Rectangle_117" data-name="Rectangle 117" class="cls-6" d="M46.5,44h0a.5.5,0,0,1,.5-.5h9a.5.5,0,0,1,.5.5h0a.5.5,0,0,1-.5.5H47A.5.5,0,0,1,46.5,44Z"/><path id="Rectangle_140" data-name="Rectangle 140" class="cls-6" d="M51.5,39h0a.5.5,0,0,1,.5.5v9a.5.5,0,0,1-.5.5h0a.5.5,0,0,1-.5-.5v-9A.5.5,0,0,1,51.5,39Z"/></g></g></g></svg>