<svg xmlns="http://www.w3.org/2000/svg" viewBox="0 0 97 16"><defs><style>.cls-1{fill:#fff;}.cls-2,.cls-3{isolation:isolate;}.cls-3{font-size:9px;font-family:HelveticaNeue-Medium, Helvetica Neue;font-weight:500;}.cls-3,.cls-5{fill:#15a8ca;}.cls-4{fill:none;stroke:#15a8cb;}.cls-4,.cls-5{stroke-linecap:round;stroke-miterlimit:10;}.cls-5{stroke:#15a8ca;}</style></defs><title>23-9_Update</title><g id="Assets-Schedule-Inactive"><g id="Path_298" data-name="Path 298"><path class="cls-1" d="M89,15.5H8A7.5,7.5,0,0,1,8,.5H89a7.5,7.5,0,0,1,0,15Z"/><path class="cls-1" d="M8,1A7,7,0,0,0,8,15H89A7,7,0,0,0,89,1H8M8,0H89a8,8,0,0,1,0,16H8A8,8,0,0,1,8,0Z"/></g><g id="Refine_Criteria" data-name="Refine Criteria" class="cls-2"><text class="cls-3" transform="matrix(1, 0, 0, 1, 27.36, 11.29)">Refine Criteria</text></g><line id="Line_8" data-name="Line 8" class="cls-4" x1="22.58" y1="10.13" x2="9.79" y2="10.13"/><line id="Line_9" data-name="Line 9" class="cls-4" x1="22.58" y1="5.87" x2="9.79" y2="5.87"/><circle id="Ellipse_21" data-name="Ellipse 21" class="cls-5" cx="13.14" cy="5.87" r="1.52"/><circle id="Ellipse_22" data-name="Ellipse 22" class="cls-5" cx="19.08" cy="10.29" r="1.52"/></g></svg>