<svg xmlns="http://www.w3.org/2000/svg" viewBox="0 0 97 16"><defs><style>.cls-1,.cls-2{isolation:isolate;}.cls-2{font-size:9px;font-family:HelveticaNeue-Medium, Helvetica Neue;font-weight:500;}.cls-2,.cls-4{fill:#fff;}.cls-3,.cls-5,.cls-6{fill:none;}.cls-3,.cls-4,.cls-6{stroke:#fff;}.cls-3,.cls-4{stroke-linecap:round;stroke-miterlimit:10;}</style></defs><title>23-9_Update</title><g id="Assets-Schedule-Inactive"><g id="Refine_Criteria" data-name="Refine Criteria" class="cls-1"><text class="cls-2" transform="matrix(1, 0, 0, 1, 27.36, 11.29)">Refine Criteria</text></g><line id="Line_8" data-name="Line 8" class="cls-3" x1="22.58" y1="10.13" x2="9.79" y2="10.13"/><line id="Line_9" data-name="Line 9" class="cls-3" x1="22.58" y1="5.87" x2="9.79" y2="5.87"/><circle id="Ellipse_21" data-name="Ellipse 21" class="cls-4" cx="13.14" cy="5.87" r="1.52"/><circle id="Ellipse_22" data-name="Ellipse 22" class="cls-4" cx="19.08" cy="10.29" r="1.52"/><g id="Rectangle_276" data-name="Rectangle 276"><path class="cls-5" d="M8,0H89a8,8,0,0,1,8,8h0a8,8,0,0,1-8,8H8A8,8,0,0,1,0,8H0A8,8,0,0,1,8,0Z"/><path class="cls-6" d="M8,.5H89A7.5,7.5,0,0,1,96.5,8h0A7.5,7.5,0,0,1,89,15.5H8A7.5,7.5,0,0,1,.5,8h0A7.5,7.5,0,0,1,8,.5Z"/></g></g></svg>