<svg id="Assets-Schedule-Active" xmlns="http://www.w3.org/2000/svg" viewBox="0 0 61 49.22"><defs><style>.cls-1,.cls-2{isolation:isolate;}.cls-2{font-size:10px;font-family:HelveticaNeue-Bold, Helvetica Neue;font-weight:700;}.cls-2,.cls-3{fill:#fff;}</style></defs><title>23-9_Update</title><g id="Group_317" data-name="Group 317"><g id="Schedule" class="cls-1"><text class="cls-2" transform="translate(8.8 48.12)">Schedule</text></g><g id="Group_2" data-name="Group 2"><path id="Path_11" data-name="Path 11" class="cls-3" d="M18.54,34.24l22.77,0a3.09,3.09,0,0,0,3.1-3.11h0l0-17.59-29,0,0,17.59a3.09,3.09,0,0,0,3.06,3.11Zm2.05-16.57H26.8a1,1,0,0,1,1,1V24.9a1,1,0,0,1-1,1H20.6a1,1,0,0,1-1-1V18.7a1,1,0,0,1,1-1ZM41.27,5.23h-3.1V2.13a1,1,0,0,0-1-1H35.07a1,1,0,0,0-1,1v3.1l-8.28,0V2.15a1,1,0,0,0-1-1H22.66a1.05,1.05,0,0,0-1,1v3.1h-3.1a3.1,3.1,0,0,0-3.1,3.11h0v3.1l29,0V8.33A3.13,3.13,0,0,0,41.27,5.23Z"/></g></g></svg>