<svg xmlns="http://www.w3.org/2000/svg" viewBox="0 0 61 49.22"><defs><style>.cls-1{fill:#0fa9cc;}.cls-2,.cls-3{isolation:isolate;}.cls-3{font-size:10px;fill:#0ea6c8;font-family:HelveticaNeue-Bold, Helvetica Neue;font-weight:700;}</style></defs><title>23-9_Update</title><g id="Assets-Schedule-Inactive"><g id="Group_162" data-name="Group 162"><path id="headset-solid" class="cls-1" d="M25.79,15.23a2.28,2.28,0,0,0-2.28-2.29H22.37a4.57,4.57,0,0,0-4.57,4.57h0v3.43a4.57,4.57,0,0,0,4.57,4.57h1.14a2.29,2.29,0,0,0,2.28-2.29ZM38.36,25.51a4.58,4.58,0,0,0,4.57-4.57h0V17.51a4.58,4.58,0,0,0-4.57-4.57H37.22a2.29,2.29,0,0,0-2.29,2.29v8a2.28,2.28,0,0,0,2.29,2.28ZM30.36.38C20.17.38,12.41,8.86,12.08,18.65V19.8a1.15,1.15,0,0,0,1.15,1.14h1.14a1.14,1.14,0,0,0,1.14-1.14h0V18.65a14.85,14.85,0,0,1,29.7,0h0c0,.18,0,11.84,0,11.84a3,3,0,0,1-3,3H34.93a3.42,3.42,0,0,0-3.42-3.42H29.22a3.43,3.43,0,1,0,0,6.85h13a6.45,6.45,0,0,0,6.45-6.45V18.65C48.31,8.86,40.56.38,30.36.38Z"/><g id="Support" class="cls-2"><text class="cls-3" transform="translate(12.08 47.38)">Support</text></g></g></g></svg>